<mxfile host="app.diagrams.net" modified="2020-12-20T10:09:32.651Z" agent="5.0 (Windows NT 10.0; Win64; x64) AppleWebKit/537.36 (KHTML, like Gecko) Chrome/87.0.4280.88 Safari/537.36" etag="vXY0PpwIo4n7DowTJcm1" version="14.0.3" type="github">
  <diagram id="93_f_u44dyee0bgPAR8U" name="Page-1">
    <mxGraphModel dx="981" dy="526" grid="1" gridSize="10" guides="1" tooltips="1" connect="1" arrows="1" fold="1" page="1" pageScale="1" pageWidth="827" pageHeight="1169" math="0" shadow="0">
      <root>
        <mxCell id="0" />
        <mxCell id="1" parent="0" />
        <mxCell id="8e8W8IB358CBjNK4oZOg-1" value="" style="shape=table;html=1;whiteSpace=wrap;startSize=0;container=1;collapsible=0;childLayout=tableLayout;" parent="1" vertex="1">
          <mxGeometry y="40" width="810" height="385" as="geometry" />
        </mxCell>
        <mxCell id="8e8W8IB358CBjNK4oZOg-2" value="" style="shape=partialRectangle;html=1;whiteSpace=wrap;collapsible=0;dropTarget=0;pointerEvents=0;fillColor=none;top=0;left=0;bottom=0;right=0;points=[[0,0.5],[1,0.5]];portConstraint=eastwest;" parent="8e8W8IB358CBjNK4oZOg-1" vertex="1">
          <mxGeometry width="810" height="40" as="geometry" />
        </mxCell>
        <mxCell id="8e8W8IB358CBjNK4oZOg-3" value="" style="shape=partialRectangle;html=1;whiteSpace=wrap;connectable=0;fillColor=none;top=0;left=0;bottom=0;right=0;overflow=hidden;" parent="8e8W8IB358CBjNK4oZOg-2" vertex="1">
          <mxGeometry width="100" height="40" as="geometry" />
        </mxCell>
        <mxCell id="8e8W8IB358CBjNK4oZOg-4" value="Frontend (FE) – körs på användarens dator" style="shape=partialRectangle;html=1;whiteSpace=wrap;connectable=0;fillColor=none;top=0;left=0;bottom=0;right=0;overflow=hidden;" parent="8e8W8IB358CBjNK4oZOg-2" vertex="1">
          <mxGeometry x="100" width="260" height="40" as="geometry" />
        </mxCell>
        <mxCell id="8e8W8IB358CBjNK4oZOg-14" value="Backend (BE) – körs på en server" style="shape=partialRectangle;html=1;whiteSpace=wrap;connectable=0;fillColor=none;top=0;left=0;bottom=0;right=0;overflow=hidden;" parent="8e8W8IB358CBjNK4oZOg-2" vertex="1">
          <mxGeometry x="360" width="450" height="40" as="geometry" />
        </mxCell>
        <mxCell id="8e8W8IB358CBjNK4oZOg-6" value="" style="shape=partialRectangle;html=1;whiteSpace=wrap;collapsible=0;dropTarget=0;pointerEvents=0;fillColor=none;top=0;left=0;bottom=0;right=0;points=[[0,0.5],[1,0.5]];portConstraint=eastwest;" parent="8e8W8IB358CBjNK4oZOg-1" vertex="1">
          <mxGeometry y="40" width="810" height="345" as="geometry" />
        </mxCell>
        <mxCell id="8e8W8IB358CBjNK4oZOg-7" value="" style="shape=partialRectangle;html=1;whiteSpace=wrap;connectable=0;fillColor=none;top=0;left=0;bottom=0;right=0;overflow=hidden;" parent="8e8W8IB358CBjNK4oZOg-6" vertex="1">
          <mxGeometry width="100" height="345" as="geometry" />
        </mxCell>
        <mxCell id="8e8W8IB358CBjNK4oZOg-8" value="" style="shape=partialRectangle;html=1;whiteSpace=wrap;connectable=0;fillColor=none;top=0;left=0;bottom=0;right=0;overflow=hidden;" parent="8e8W8IB358CBjNK4oZOg-6" vertex="1">
          <mxGeometry x="100" width="260" height="345" as="geometry" />
        </mxCell>
        <mxCell id="8e8W8IB358CBjNK4oZOg-15" style="shape=partialRectangle;html=1;whiteSpace=wrap;connectable=0;fillColor=none;top=0;left=0;bottom=0;right=0;overflow=hidden;" parent="8e8W8IB358CBjNK4oZOg-6" vertex="1">
          <mxGeometry x="360" width="450" height="345" as="geometry" />
        </mxCell>
        <mxCell id="8e8W8IB358CBjNK4oZOg-25" style="edgeStyle=orthogonalEdgeStyle;rounded=0;orthogonalLoop=1;jettySize=auto;html=1;exitX=1;exitY=0.5;exitDx=0;exitDy=0;" parent="1" source="8e8W8IB358CBjNK4oZOg-17" target="8e8W8IB358CBjNK4oZOg-23" edge="1">
          <mxGeometry relative="1" as="geometry" />
        </mxCell>
        <mxCell id="8e8W8IB358CBjNK4oZOg-17" value="" style="shape=image;html=1;verticalAlign=top;verticalLabelPosition=bottom;labelBackgroundColor=#ffffff;imageAspect=0;aspect=fixed;image=https://cdn3.iconfinder.com/data/icons/seo-marketing-19/32/SEO-17-128.png" parent="1" vertex="1">
          <mxGeometry x="150" y="166" width="54" height="54" as="geometry" />
        </mxCell>
        <mxCell id="8e8W8IB358CBjNK4oZOg-24" style="edgeStyle=orthogonalEdgeStyle;rounded=0;orthogonalLoop=1;jettySize=auto;html=1;exitX=1;exitY=0.5;exitDx=0;exitDy=0;exitPerimeter=0;" parent="1" source="8e8W8IB358CBjNK4oZOg-19" target="8e8W8IB358CBjNK4oZOg-17" edge="1">
          <mxGeometry relative="1" as="geometry" />
        </mxCell>
        <mxCell id="8e8W8IB358CBjNK4oZOg-19" value="" style="shape=mxgraph.cisco.people.androgenous_person;html=1;pointerEvents=1;dashed=0;fillColor=#036897;strokeColor=#ffffff;strokeWidth=2;verticalLabelPosition=bottom;verticalAlign=top;align=center;outlineConnect=0;" parent="1" vertex="1">
          <mxGeometry x="16" y="152" width="69" height="82" as="geometry" />
        </mxCell>
        <mxCell id="8e8W8IB358CBjNK4oZOg-22" value="" style="shape=datastore;whiteSpace=wrap;html=1;" parent="1" vertex="1">
          <mxGeometry x="690" y="163" width="60" height="60" as="geometry" />
        </mxCell>
        <mxCell id="8e8W8IB358CBjNK4oZOg-30" style="edgeStyle=orthogonalEdgeStyle;rounded=0;orthogonalLoop=1;jettySize=auto;html=1;exitX=1;exitY=0.5;exitDx=0;exitDy=0;" parent="1" source="8e8W8IB358CBjNK4oZOg-23" target="8e8W8IB358CBjNK4oZOg-28" edge="1">
          <mxGeometry relative="1" as="geometry" />
        </mxCell>
        <mxCell id="8e8W8IB358CBjNK4oZOg-23" value="Internet" style="aspect=fixed;perimeter=ellipsePerimeter;html=1;align=center;shadow=0;dashed=0;spacingTop=3;image;image=img/lib/active_directory/internet_cloud.svg;" parent="1" vertex="1">
          <mxGeometry x="300" y="154" width="123.81" height="78" as="geometry" />
        </mxCell>
        <mxCell id="8e8W8IB358CBjNK4oZOg-32" style="edgeStyle=orthogonalEdgeStyle;rounded=0;orthogonalLoop=1;jettySize=auto;html=1;exitX=1;exitY=1;exitDx=0;exitDy=0;entryX=0;entryY=0.5;entryDx=0;entryDy=0;" parent="1" source="8e8W8IB358CBjNK4oZOg-28" target="8e8W8IB358CBjNK4oZOg-29" edge="1">
          <mxGeometry relative="1" as="geometry" />
        </mxCell>
        <mxCell id="8e8W8IB358CBjNK4oZOg-33" style="edgeStyle=orthogonalEdgeStyle;rounded=0;orthogonalLoop=1;jettySize=auto;html=1;exitX=1;exitY=0.5;exitDx=0;exitDy=0;" parent="1" source="8e8W8IB358CBjNK4oZOg-28" target="8e8W8IB358CBjNK4oZOg-22" edge="1">
          <mxGeometry relative="1" as="geometry" />
        </mxCell>
        <mxCell id="8e8W8IB358CBjNK4oZOg-28" value="" style="aspect=fixed;perimeter=ellipsePerimeter;html=1;align=center;shadow=0;dashed=0;spacingTop=3;image;image=img/lib/active_directory/generic_server.svg;" parent="1" vertex="1">
          <mxGeometry x="470" y="150" width="48.16" height="86" as="geometry" />
        </mxCell>
        <mxCell id="8e8W8IB358CBjNK4oZOg-29" value="" style="aspect=fixed;perimeter=ellipsePerimeter;html=1;align=center;shadow=0;dashed=0;spacingTop=3;image;image=img/lib/active_directory/generic_server.svg;" parent="1" vertex="1">
          <mxGeometry x="630" y="260" width="48.16" height="86" as="geometry" />
        </mxCell>
        <mxCell id="8e8W8IB358CBjNK4oZOg-37" style="edgeStyle=orthogonalEdgeStyle;rounded=0;orthogonalLoop=1;jettySize=auto;html=1;exitX=0.5;exitY=1;exitDx=0;exitDy=0;endArrow=none;endFill=0;dashed=1;" parent="1" source="8e8W8IB358CBjNK4oZOg-36" target="8e8W8IB358CBjNK4oZOg-17" edge="1">
          <mxGeometry relative="1" as="geometry" />
        </mxCell>
        <mxCell id="8e8W8IB358CBjNK4oZOg-36" value="Användaren besöker en hemsida i sin webbläsare" style="text;html=1;strokeColor=none;fillColor=none;align=center;verticalAlign=middle;whiteSpace=wrap;rounded=0;" parent="1" vertex="1">
          <mxGeometry x="110" y="90" width="150" height="30" as="geometry" />
        </mxCell>
        <mxCell id="8e8W8IB358CBjNK4oZOg-39" style="edgeStyle=orthogonalEdgeStyle;rounded=0;orthogonalLoop=1;jettySize=auto;html=1;exitX=0.5;exitY=0;exitDx=0;exitDy=0;entryX=0.25;entryY=1;entryDx=0;entryDy=0;dashed=1;endArrow=none;endFill=0;" parent="1" source="8e8W8IB358CBjNK4oZOg-38" target="8e8W8IB358CBjNK4oZOg-23" edge="1">
          <mxGeometry relative="1" as="geometry" />
        </mxCell>
        <mxCell id="8e8W8IB358CBjNK4oZOg-38" value="Anrop skickas över internet till backend" style="text;html=1;strokeColor=none;fillColor=none;align=center;verticalAlign=middle;whiteSpace=wrap;rounded=0;" parent="1" vertex="1">
          <mxGeometry x="190" y="279.5" width="120" height="47" as="geometry" />
        </mxCell>
        <mxCell id="8e8W8IB358CBjNK4oZOg-41" style="edgeStyle=orthogonalEdgeStyle;rounded=0;orthogonalLoop=1;jettySize=auto;html=1;exitX=0.5;exitY=1;exitDx=0;exitDy=0;dashed=1;endArrow=none;endFill=0;" parent="1" source="8e8W8IB358CBjNK4oZOg-40" target="8e8W8IB358CBjNK4oZOg-28" edge="1">
          <mxGeometry relative="1" as="geometry" />
        </mxCell>
        <mxCell id="8e8W8IB358CBjNK4oZOg-40" value="En applikation (t.ex. i C#) tar emot anropet från FE" style="text;html=1;strokeColor=none;fillColor=none;align=center;verticalAlign=middle;whiteSpace=wrap;rounded=0;" parent="1" vertex="1">
          <mxGeometry x="380" y="85" width="170" height="40" as="geometry" />
        </mxCell>
        <mxCell id="8e8W8IB358CBjNK4oZOg-43" style="edgeStyle=orthogonalEdgeStyle;rounded=0;orthogonalLoop=1;jettySize=auto;html=1;exitX=0.5;exitY=1;exitDx=0;exitDy=0;dashed=1;endArrow=none;endFill=0;" parent="1" source="8e8W8IB358CBjNK4oZOg-42" edge="1">
          <mxGeometry relative="1" as="geometry">
            <mxPoint x="620" y="190" as="targetPoint" />
          </mxGeometry>
        </mxCell>
        <mxCell id="8e8W8IB358CBjNK4oZOg-42" value="Databasen anropas sen av applikationen" style="text;html=1;strokeColor=none;fillColor=none;align=center;verticalAlign=middle;whiteSpace=wrap;rounded=0;" parent="1" vertex="1">
          <mxGeometry x="600" y="80" width="120" height="40" as="geometry" />
        </mxCell>
        <mxCell id="n67nzttz4H-dqeYSOLG1-3" style="edgeStyle=orthogonalEdgeStyle;rounded=0;orthogonalLoop=1;jettySize=auto;html=1;exitX=0.5;exitY=0;exitDx=0;exitDy=0;dashed=1;endArrow=none;endFill=0;fontColor=#990000;" edge="1" parent="1" source="8e8W8IB358CBjNK4oZOg-44">
          <mxGeometry relative="1" as="geometry">
            <mxPoint x="570" y="270" as="targetPoint" />
            <Array as="points">
              <mxPoint x="537" y="270" />
            </Array>
          </mxGeometry>
        </mxCell>
        <mxCell id="8e8W8IB358CBjNK4oZOg-44" value="Applikationen kan också anropa andra applikationer" style="text;html=1;strokeColor=none;fillColor=none;align=center;verticalAlign=middle;whiteSpace=wrap;rounded=0;" parent="1" vertex="1">
          <mxGeometry x="474" y="320" width="126" height="50" as="geometry" />
        </mxCell>
        <mxCell id="n67nzttz4H-dqeYSOLG1-6" style="edgeStyle=orthogonalEdgeStyle;rounded=0;orthogonalLoop=1;jettySize=auto;html=1;exitX=0.5;exitY=0;exitDx=0;exitDy=0;dashed=1;endArrow=none;endFill=0;fontColor=#990000;" edge="1" parent="1" source="8e8W8IB358CBjNK4oZOg-46" target="8e8W8IB358CBjNK4oZOg-17">
          <mxGeometry relative="1" as="geometry" />
        </mxCell>
        <mxCell id="8e8W8IB358CBjNK4oZOg-46" value="Kurs 4 &amp;amp; 5" style="ellipse;whiteSpace=wrap;html=1;fontColor=#990000;fillColor=#FFCCCC;strokeColor=#990000;" parent="1" vertex="1">
          <mxGeometry x="110" y="274" width="70" height="46" as="geometry" />
        </mxCell>
        <mxCell id="n67nzttz4H-dqeYSOLG1-4" style="edgeStyle=orthogonalEdgeStyle;rounded=0;orthogonalLoop=1;jettySize=auto;html=1;exitX=0.5;exitY=0;exitDx=0;exitDy=0;entryX=0.25;entryY=1;entryDx=0;entryDy=0;dashed=1;endArrow=none;endFill=0;fontColor=#990000;" edge="1" parent="1" source="n67nzttz4H-dqeYSOLG1-1" target="8e8W8IB358CBjNK4oZOg-28">
          <mxGeometry relative="1" as="geometry" />
        </mxCell>
        <mxCell id="n67nzttz4H-dqeYSOLG1-1" value="Kurs 1 &amp;amp; 5" style="ellipse;whiteSpace=wrap;html=1;fontColor=#990000;fillColor=#FFCCCC;strokeColor=#990000;" vertex="1" parent="1">
          <mxGeometry x="404" y="260" width="70" height="46" as="geometry" />
        </mxCell>
        <mxCell id="n67nzttz4H-dqeYSOLG1-5" style="edgeStyle=orthogonalEdgeStyle;rounded=0;orthogonalLoop=1;jettySize=auto;html=1;exitX=0.5;exitY=0;exitDx=0;exitDy=0;dashed=1;endArrow=none;endFill=0;fontColor=#990000;" edge="1" parent="1" source="n67nzttz4H-dqeYSOLG1-2" target="8e8W8IB358CBjNK4oZOg-22">
          <mxGeometry relative="1" as="geometry" />
        </mxCell>
        <mxCell id="n67nzttz4H-dqeYSOLG1-2" value="Kurs 3" style="ellipse;whiteSpace=wrap;html=1;fontColor=#990000;fillColor=#FFCCCC;strokeColor=#990000;" vertex="1" parent="1">
          <mxGeometry x="710" y="260" width="70" height="46" as="geometry" />
        </mxCell>
      </root>
    </mxGraphModel>
  </diagram>
</mxfile>
